<mxfile host="app.diagrams.net" modified="2023-05-19T06:48:34.586Z" agent="Mozilla/5.0 (Windows NT 10.0; Win64; x64) AppleWebKit/537.36 (KHTML, like Gecko) Chrome/113.0.0.0 Safari/537.36 Edg/113.0.1774.42" version="21.3.2" etag="QduB24UCZOd1BK4Obtix" type="github">
  <diagram name="第 1 页" id="kOR1BWqFx53XRqX-JxtZ">
    <mxGraphModel>
      <root>
        <mxCell id="0" />
        <mxCell id="1" parent="0" />
      </root>
    </mxGraphModel>
  </diagram>
</mxfile>
